<svg 
 xmlns="http://www.w3.org/2000/svg"
 xmlns:xlink="http://www.w3.org/1999/xlink"
 width="612px" height="471px">
<path fill-rule="evenodd"  fill="rgb(38, 101, 10)"
 d="M7.56,259.208 C2.351,254.502 0.0,247.442 0.0,242.736 C0.0,238.29 2.351,230.970 7.56,226.263 L39.991,193.318 C49.401,183.905 63.516,183.905 72.926,193.318 L75.279,195.671 L204.666,334.512 C209.371,339.219 216.428,339.219 221.133,334.512 L536.368,7.412 L538.720,7.412 L538.720,7.412 L538.720,7.412 C548.130,-2.0 562.245,-2.0 571.655,7.412 L604.590,40.357 C614.0,49.770 614.0,63.890 604.590,73.303 L604.590,73.303 L604.590,73.303 L228.191,463.940 C223.486,468.646 218.781,471.0 211.723,471.0 C204.666,471.0 199.961,468.646 195.256,463.940 L11.761,266.268 L7.56,259.208 Z"/>
</svg>