<svg 
 xmlns="http://www.w3.org/2000/svg"
 xmlns:xlink="http://www.w3.org/1999/xlink"
 width="612px" height="612px">
<path fill-rule="evenodd"  fill="rgb(255, 123, 123)"
 d="M378.730,306.1 L596.915,87.815 C617.0,67.731 617.0,35.168 596.915,15.87 C576.831,-4.997 544.271,-4.997 524.187,15.87 L305.998,233.275 L87.809,15.84 C67.725,-5.0 35.165,-5.0 15.81,15.84 C-5.0,35.168 -5.0,67.731 15.81,87.812 L233.269,305.998 L15.81,524.187 C-5.0,544.271 -5.0,576.834 15.81,596.915 C35.165,617.0 67.725,617.0 87.809,596.915 L305.998,378.727 L524.187,596.915 C544.268,617.0 576.831,617.0 596.915,596.915 C617.0,576.831 617.0,544.271 596.915,524.187 L378.730,306.1 Z"/>
</svg>