<svg 
 xmlns="http://www.w3.org/2000/svg"
 xmlns:xlink="http://www.w3.org/1999/xlink"
 width="97px" height="97px">
<path fill-rule="evenodd"  fill="rgb(72, 189, 21)"
 d="M48.499,97.1 C21.756,97.1 0.1,75.243 0.1,48.499 C0.1,21.756 21.756,0.1 48.499,0.1 C75.243,0.1 97.1,21.756 97.1,48.499 C97.1,75.243 75.243,97.1 48.499,97.1 ZM48.499,10.318 C27.446,10.318 10.317,27.445 10.317,48.499 C10.317,69.553 27.446,86.681 48.499,86.681 C69.552,86.681 86.682,69.553 86.682,48.499 C86.682,27.445 69.552,10.318 48.499,10.318 ZM73.777,54.989 L47.987,54.989 C45.782,54.989 43.994,53.201 43.994,50.995 L43.994,20.794 C43.994,18.589 45.782,16.801 47.987,16.801 C50.193,16.801 51.981,18.589 51.981,20.794 L51.981,47.2 L73.777,47.2 C75.982,47.2 77.770,48.790 77.770,50.995 C77.770,53.201 75.982,54.989 73.777,54.989 Z"/>
</svg>