<svg 
 xmlns="http://www.w3.org/2000/svg"
 xmlns:xlink="http://www.w3.org/1999/xlink"
 width="801px" height="679px">
<path fill-rule="evenodd"  fill="rgb(72, 189, 21)"
 d="M794.595,400.352 C739.227,479.730 683.859,558.945 628.327,638.323 C624.371,644.86 619.758,646.886 615.144,646.886 C610.859,646.886 606.575,644.416 602.950,639.640 C572.629,600.445 542.473,561.415 512.317,522.219 C507.704,516.125 503.584,509.538 499.465,503.115 C496.4,497.680 496.663,492.411 500.783,487.471 C502.265,485.659 503.584,484.12 505.232,482.365 C510.834,476.601 515.448,473.637 520.392,473.637 C524.347,473.637 528.631,475.613 533.740,479.401 C556.480,496.363 578.726,513.985 601.302,531.442 C605.421,534.735 609.541,537.864 613.990,541.323 C622.888,531.112 631.457,521.231 640.26,511.350 C678.257,467.49 716.486,422.913 754.717,378.613 C762.297,369.884 767.240,365.602 772.844,365.602 C777.787,365.602 783.225,368.896 791.134,375.319 C802.175,384.377 802.999,388.329 794.595,400.352 ZM616.792,491.94 C614.320,493.728 612.13,496.528 609.706,499.163 C606.575,496.857 603.609,494.387 600.478,492.82 C584.823,479.895 568.344,467.49 551.867,454.862 C541.320,446.957 530.938,443.170 520.392,443.170 C503.90,443.170 491.61,453.380 483.480,460.956 C481.9,463.591 479.31,465.897 477.219,468.38 C464.530,483.354 463.47,503.115 473.594,519.584 L474.911,521.560 C478.867,527.818 483.150,534.406 488.94,540.829 C506.56,564.378 524.512,588.93 542.638,611.644 C486.117,653.968 415.754,679.0 339.623,679.0 C152.97,679.0 0.0,526.995 0.0,339.582 C0.0,152.169 152.97,0.164 339.458,0.0 C526.984,0.0 679.80,152.5 679.80,339.418 C679.80,372.519 674.302,404.469 665.403,434.770 C649.254,453.545 633.105,472.319 616.792,491.94 ZM322.650,227.266 C328.746,224.631 335.173,223.643 341.765,223.314 C366.977,221.831 390.871,226.443 413.611,237.477 C424.981,242.911 428.771,241.265 432.561,229.407 C436.517,216.891 439.977,204.210 443.602,191.694 C446.74,183.295 443.108,177.531 435.33,174.72 C420.532,167.650 405.537,163.39 389.717,160.568 C369.119,157.439 369.284,157.275 369.119,136.689 C368.954,107.539 368.954,107.539 339.788,107.539 C335.667,107.539 331.383,107.375 327.98,107.539 C313.421,107.869 311.115,110.174 310.785,124.8 C310.785,130.102 310.785,136.359 310.785,142.453 C310.621,160.733 310.621,160.404 293.153,166.827 C250.804,182.142 224.767,210.962 221.966,257.74 C219.494,297.917 240.752,325.419 274.367,345.511 C295.131,357.862 317.871,365.273 339.788,374.825 C348.356,378.613 356.431,382.895 363.681,388.823 C384.773,406.116 380.819,435.100 355.936,445.969 C342.424,451.733 328.417,453.216 313.916,451.404 C291.505,448.604 270.83,442.840 249.979,432.300 C238.115,426.42 234.654,427.689 230.700,440.534 C227.239,451.569 224.273,462.767 221.142,473.966 C217.22,488.953 218.506,492.575 232.842,499.492 C251.133,508.220 270.578,512.832 290.516,515.961 C306.171,518.431 306.665,519.90 306.830,535.229 C306.830,542.476 306.830,549.887 306.996,557.133 C307.160,566.354 311.609,571.789 321.2,571.954 C331.877,572.283 342.754,572.283 353.465,571.954 C362.198,571.624 366.812,566.848 366.812,557.956 C366.812,547.910 367.307,537.864 366.812,527.818 C366.317,517.608 370.602,512.338 380.490,509.703 C403.65,503.609 422.344,491.423 437.175,473.472 C478.207,423.572 462.388,350.616 403.889,318.667 C385.598,308.621 366.317,300.881 347.38,292.976 C335.998,288.365 325.286,282.930 315.894,275.519 C297.437,260.697 300.898,236.818 322.650,227.266 Z"/>
</svg>