<svg 
 xmlns="http://www.w3.org/2000/svg"
 xmlns:xlink="http://www.w3.org/1999/xlink"
 width="98px" height="92px">
<path fill-rule="evenodd"  fill="rgb(72, 189, 21)"
 d="M97.407,55.883 L80.88,88.635 C79.240,90.264 76.838,91.986 74.983,91.986 L5.531,92.0 C4.63,92.0 2.657,91.418 1.620,90.382 C0.583,89.345 0.0,87.939 0.0,86.474 L0.12,32.583 C0.12,29.536 2.484,27.63 5.534,27.60 L10.613,27.55 L10.613,31.762 L7.215,31.762 C6.550,31.762 5.912,32.26 5.441,32.496 C4.971,32.966 4.707,33.604 4.707,34.269 L4.712,84.787 C4.712,86.172 5.835,87.294 7.221,87.294 L10.700,87.294 L27.114,54.115 C28.41,52.261 29.793,50.764 31.646,50.764 L71.843,50.764 L71.856,37.412 C74.482,37.655 76.553,39.831 76.553,42.515 L76.553,50.764 L94.990,50.764 C97.167,50.787 98.999,52.937 97.407,55.883 ZM13.815,70.592 C13.665,54.78 13.815,4.531 13.815,4.531 C13.815,2.31 15.849,0.0 18.349,0.0 L54.657,0.0 C55.238,0.0 55.793,0.243 56.186,0.670 L67.924,13.414 C68.277,13.798 68.473,14.300 68.473,14.821 L68.473,47.834 L64.666,47.834 L64.666,17.672 C64.666,17.150 64.242,16.726 63.719,16.726 L54.734,16.726 C53.683,16.726 52.828,15.873 52.828,14.824 L52.828,4.751 C52.828,4.229 52.404,3.805 51.881,3.805 L18.351,3.805 C17.950,3.805 17.624,4.131 17.624,4.531 L17.624,66.439 L14.710,72.330 C14.710,72.328 13.830,72.264 13.815,70.592 ZM56.640,12.922 L62.296,12.922 L56.640,6.779 L56.640,12.922 ZM58.703,20.601 L23.611,20.601 C22.319,20.601 21.269,21.651 21.269,22.943 C21.269,24.234 22.319,25.284 23.611,25.284 L58.703,25.284 C59.997,25.284 61.48,24.233 61.48,22.943 C61.47,21.652 59.995,20.601 58.703,20.601 ZM61.47,36.578 C61.47,35.287 59.995,34.238 58.703,34.238 L23.611,34.238 C22.319,34.238 21.269,35.289 21.269,36.578 C21.269,37.869 22.319,38.917 23.611,38.917 L58.703,38.917 C59.995,38.917 61.47,37.869 61.47,36.578 ZM21.268,50.305 C21.268,51.596 22.319,52.644 23.610,52.644 L24.452,52.644 C25.933,48.521 29.604,47.965 29.604,47.965 L23.610,47.965 C22.320,47.965 21.268,49.14 21.268,50.305 Z"/>
</svg>