<svg 
 xmlns="http://www.w3.org/2000/svg"
 xmlns:xlink="http://www.w3.org/1999/xlink"
 width="685px" height="800px">
<path fill-rule="evenodd"  fill="rgb(72, 189, 21)"
 d="M653.15,562.500 L630.859,562.500 C617.33,607.499 590.212,647.832 553.897,680.166 C553.564,680.499 553.230,680.666 552.897,680.999 C551.731,681.999 550.565,682.999 549.399,683.999 C516.748,713.499 513.749,747.999 513.583,756.666 L513.583,782.666 C513.583,792.332 505.753,799.999 496.258,799.999 L390.643,799.999 C380.980,799.999 373.317,792.166 373.317,782.666 L373.317,757.832 C361.157,759.166 348.996,759.832 336.502,759.832 C320.677,759.832 305.17,758.666 289.692,756.666 L289.692,782.666 C289.692,792.332 281.862,799.999 272.366,799.999 L167.84,799.999 C157.922,799.999 150.426,792.832 149.759,783.832 C149.759,783.832 149.759,783.832 149.759,783.666 C149.759,783.332 149.759,782.999 149.759,782.666 L149.759,774.832 C148.927,756.499 143.262,714.166 110.112,679.999 C87.123,656.499 70.465,627.499 58.970,602.666 C50.308,585.832 43.478,567.999 38.980,549.499 C38.813,548.999 38.813,548.666 38.813,548.666 C34.482,530.832 32.150,512.332 32.150,493.332 C32.150,458.166 39.813,424.666 53.973,393.999 C94.786,425.332 145.761,443.999 201.234,443.999 C315.345,443.999 411.133,364.833 436.786,258.499 C440.452,243.333 448.781,229.666 460.442,219.499 C477.434,204.666 502.89,191.499 537.904,186.999 C553.897,184.999 564.891,202.499 556.395,216.166 C544.234,235.666 533.739,262.833 542.235,292.666 C542.569,294.166 542.902,295.833 542.902,297.333 C583.382,329.999 613.700,372.166 629.193,419.665 L652.682,419.665 C670.340,419.665 684.666,433.999 685.0,451.666 L685.0,530.499 C685.0,548.166 670.673,562.500 653.15,562.500 ZM520.913,372.999 C506.420,372.999 494.758,384.666 494.758,399.166 C494.758,413.665 506.420,425.332 520.913,425.332 C535.406,425.332 547.67,413.665 547.67,399.166 C547.67,384.666 535.406,372.999 520.913,372.999 ZM201.234,402.833 C90.122,402.833 0.0,312.499 0.0,201.333 C0.0,90.166 90.122,0.0 201.234,0.0 C312.347,0.0 402.470,90.333 402.470,201.499 C402.470,312.666 312.347,402.833 201.234,402.833 ZM191.73,134.333 C194.737,132.666 198.403,132.166 202.401,131.999 C217.393,131.166 231.553,133.999 245.46,140.499 C251.710,143.666 253.875,142.666 256.208,135.666 C258.707,128.333 260.706,120.833 262.871,113.333 C264.204,108.333 262.538,104.999 257.707,102.833 C249.45,98.999 240.216,96.333 230.887,94.833 C218.726,92.999 218.726,92.833 218.726,80.666 C218.726,63.333 218.726,63.333 201.401,63.333 C198.902,63.333 196.404,63.333 193.905,63.333 C185.909,63.666 184.409,64.999 184.242,73.166 C184.242,76.833 184.242,80.499 184.242,84.166 C184.76,94.999 184.76,94.833 173.748,98.666 C148.760,107.666 133.267,124.833 131.602,152.166 C130.102,176.333 142.763,192.833 162.586,204.666 C174.914,211.999 188.407,216.333 201.401,221.999 C206.399,224.166 211.229,226.833 215.561,230.333 C228.55,240.666 225.722,257.833 210.897,264.333 C203.67,267.833 194.571,268.666 186.75,267.666 C172.748,265.999 160.88,262.500 148.94,256.333 C141.97,252.666 138.931,253.499 136.599,261.166 C134.600,267.833 132.767,274.333 130.935,280.999 C128.603,289.833 129.436,291.999 137.599,295.833 C148.427,301.166 159.921,303.832 171.749,305.666 C181.77,307.166 181.244,307.666 181.411,317.166 C181.577,321.499 181.577,325.833 181.577,330.166 C181.577,335.666 184.242,338.833 189.907,338.999 C196.237,339.166 202.733,339.166 209.64,338.999 C214.395,338.833 217.60,335.999 217.60,330.666 C217.60,324.666 217.393,318.833 217.60,312.833 C216.727,306.833 219.392,303.833 225.223,302.166 C238.716,298.499 250.44,291.333 258.873,280.666 C283.195,251.166 273.865,207.833 239.383,188.666 C228.388,182.666 216.894,177.999 205.566,173.333 C198.902,170.666 192.572,167.499 187.75,162.999 C176.80,154.166 178.245,139.999 191.73,134.333 Z"/>
</svg>